# File created by Blade
# Date/Time:  Thu Jan 22 16:00:44 2015
# Frame Rate: 120.000 fps
#------------------------------------------------------
:FULLY-SPECIFIED
:DEGREES
1367
root 2.208338 37.080342 7.489395 3.906702 -4.576141 1.893102
RightUpLeg 6.562972 3.326605 -3.979876
RightLeg -6.416012 -0.000000 0.000000
RightFoot -11.044018 -10.656722 17.452661
RightToeBase 13.597935 -0.000000 -0.000000
LeftUpLeg 5.091747 7.862280 3.646817
LeftLeg -4.324786 -0.000000 0.000000
LeftFoot -5.706795 5.480253 -19.881672
LeftToeBase 7.978199 -0.000000 -0.000000
Spine -8.807772 -10.151109 -4.704651
RightShoulder -19.310679 16.096569 -44.303144
RightArm 147.786503 46.197561 94.964579
RightForeArm 44.102667 -0.000000 149.175655
RightHand 24.229135 -0.000000 -8.304049
RightHandThumb1 -24.326973 -0.000000 -32.862282
LeftShoulder -5.035196 51.091881 3.878581
LeftArm 125.294861 33.465283 37.748213
LeftForeArm 50.584431 -0.000000 133.591025
LeftHand -43.005520 0.000000 36.277297
LeftHandThumb1 -26.253704 0.000000 33.147579
Head 32.008030 21.304458 17.268778
1368
root 2.212732 37.080440 7.482299 3.911955 -4.609080 1.893222
RightUpLeg 6.533546 3.338959 -3.990247
RightLeg -6.404954 -0.000000 0.000000
RightFoot -11.043104 -10.639988 17.465574
RightToeBase 13.627647 -0.000000 -0.000000
LeftUpLeg 5.073665 7.872938 3.635581
LeftLeg -4.311242 -0.000000 0.000000
LeftFoot -5.725546 5.498619 -19.878188
LeftToeBase 8.038476 -0.000000 -0.000000
Spine -8.808651 -10.116821 -4.688176
RightShoulder -19.326225 16.088739 -44.334728
RightArm 147.820823 46.218364 94.899658
RightForeArm 43.947302 -0.000000 149.120119
RightHand 24.171514 -0.000000 -8.353159
RightHandThumb1 -24.326973 -0.000000 -32.862282
LeftShoulder -4.985604 51.097614 3.905878
LeftArm 125.281315 33.528137 37.701834
LeftForeArm 50.392192 -0.000000 133.703274
LeftHand -42.547591 0.000000 35.444211
LeftHandThumb1 -26.253704 0.000000 33.147579
Head 31.988286 21.169778 17.150031
1369
root 2.217501 37.080757 7.475651 3.912130 -4.641454 1.897293
RightUpLeg 6.497498 3.306598 -4.007165
RightLeg -6.368864 -0.000000 0.000000
RightFoot -11.031177 -10.585994 17.431377
RightToeBase 13.629569 -0.000000 -0.000000
LeftUpLeg 5.062742 7.874524 3.619346
LeftLeg -4.303516 -0.000000 0.000000
LeftFoot -5.736649 5.530665 -19.875693
LeftToeBase 8.059131 -0.000000 -0.000000
Spine -8.804061 -10.094764 -4.679066
RightShoulder -19.338352 16.086956 -44.358389
RightArm 147.843280 46.269862 94.805675
RightForeArm 43.839271 -0.000000 149.065852
RightHand 24.112686 -0.000000 -8.391050
RightHandThumb1 -24.326973 -0.000000 -32.862282
LeftShoulder -4.962318 51.107185 3.915399
LeftArm 125.286069 33.575352 37.685869
LeftForeArm 50.258440 -0.000000 133.818079
LeftHand -42.103189 -0.000000 34.609241
LeftHandThumb1 -26.253704 0.000000 33.147579
Head 31.965979 21.046722 17.043468
1370
root 2.222250 37.081304 7.469136 3.912776 -4.663188 1.902907
RightUpLeg 6.477017 3.285036 -4.023969
RightLeg -6.362405 -0.000000 0.000000
RightFoot -11.011948 -10.554568 17.413040
RightToeBase 13.583325 -0.000000 -0.000000
LeftUpLeg 5.049813 7.875985 3.603757
LeftLeg -4.294098 -0.000000 0.000000
LeftFoot -5.723505 5.537501 -19.917374
LeftToeBase 8.006982 -0.000000 -0.000000
Spine -8.799245 -10.100181 -4.663737
RightShoulder -19.358329 16.069761 -44.387696
RightArm 147.884960 46.305871 94.742728
RightForeArm 43.693580 -0.000000 149.040604
RightHand 24.069907 -0.000000 -8.525685
RightHandThumb1 -24.326973 -0.000000 -32.862282
LeftShoulder -4.955549 51.121948 3.904317
LeftArm 125.269472 33.636943 37.654362
LeftForeArm 50.149553 -0.000000 133.940659
LeftHand -41.679401 -0.000000 33.841818
LeftHandThumb1 -26.253704 0.000000 33.147579
Head 31.940624 20.938900 16.945238
1371
root 2.226666 37.081146 7.462446 3.919638 -4.683379 1.903760
RightUpLeg 6.452524 3.276164 -4.035280
RightLeg -6.359191 -0.000000 0.000000
RightFoot -10.997663 -10.530441 17.413254
RightToeBase 13.556627 -0.000000 -0.000000
LeftUpLeg 5.031083 7.888187 3.592524
LeftLeg -4.287543 -0.000000 0.000000
LeftFoot -5.746646 5.558510 -19.866849
LeftToeBase 8.105462 -0.000000 -0.000000
Spine -8.798476 -10.082499 -4.645096
RightShoulder -19.418564 16.001730 -44.413064
RightArm 147.976947 46.296914 94.737435
RightForeArm 43.476725 -0.000000 149.032485
RightHand 24.043469 -0.000000 -8.670940
RightHandThumb1 -24.326973 -0.000000 -32.862282
LeftShoulder -4.900593 51.131746 3.920058
LeftArm 125.253494 33.726498 37.623851
LeftForeArm 49.984787 -0.000000 134.057868
LeftHand -41.261830 -0.000000 33.090314
LeftHandThumb1 -26.253704 0.000000 33.147579
Head 31.897420 20.832285 16.824297
1372
root 2.231009 37.081101 7.455422 3.924872 -4.707001 1.916754
RightUpLeg 6.436955 3.283715 -4.057634
RightLeg -6.373152 -0.000000 0.000000
RightFoot -10.989496 -10.531103 17.412745
RightToeBase 13.624762 -0.000000 -0.000000
LeftUpLeg 5.015061 7.891402 3.569278
LeftLeg -4.283956 -0.000000 0.000000
LeftFoot -5.750432 5.576897 -19.863202
LeftToeBase 8.122542 -0.000000 -0.000000
Spine -8.797032 -10.058055 -4.641807
RightShoulder -19.484149 15.948206 -44.459991
RightArm 148.047272 46.244205 94.734285
RightForeArm 43.219750 -0.000000 149.032533
RightHand 23.917335 -0.000000 -8.853272
RightHandThumb1 -24.326973 -0.000000 -32.862282
LeftShoulder -4.831931 51.157836 3.955801
LeftArm 125.219359 33.810765 37.585058
LeftForeArm 49.844408 -0.000000 134.149754
LeftHand -40.852892 -0.000000 32.356521
LeftHandThumb1 -26.253704 0.000000 33.147579
Head 31.865026 20.749071 16.724830
1373
root 2.235687 37.082033 7.447538 3.912556 -4.731968 1.923413
RightUpLeg 6.426835 3.271941 -4.075446
RightLeg -6.364691 -0.000000 0.000000
RightFoot -10.967732 -10.491096 17.401921
RightToeBase 13.629314 -0.000000 -0.000000
LeftUpLeg 5.014345 7.911603 3.554948
LeftLeg -4.275046 -0.000000 0.000000
LeftFoot -5.751794 5.578347 -19.863959
LeftToeBase 8.176822 -0.000000 -0.000000
Spine -8.759310 -10.070718 -4.639475
RightShoulder -19.527401 15.955330 -44.464406
RightArm 148.122479 46.176047 94.759082
RightForeArm 42.887387 -0.000000 149.035245
RightHand 23.869862 -0.000000 -9.030446
RightHandThumb1 -24.326973 -0.000000 -32.862282
LeftShoulder -4.817166 51.164111 3.952406
LeftArm 125.199229 33.908985 37.548034
LeftForeArm 49.739784 -0.000000 134.215447
LeftHand -40.468063 -0.000000 31.676638
LeftHandThumb1 -26.253704 0.000000 33.147579
Head 31.819824 20.704623 16.657959
1374
root 2.239879 37.082367 7.441205 3.888193 -4.744434 1.930638
RightUpLeg 6.433352 3.244277 -4.091087
RightLeg -6.358343 -0.000000 0.000000
RightFoot -10.961434 -10.460879 17.381748
RightToeBase 13.659716 -0.000000 -0.000000
LeftUpLeg 5.029644 7.907166 3.542529
LeftLeg -4.275655 -0.000000 0.000000
LeftFoot -5.738236 5.596614 -19.853829
LeftToeBase 8.121868 -0.000000 -0.000000
Spine -8.712966 -10.125809 -4.630786
RightShoulder -19.537119 15.987423 -44.470582
RightArm 148.193591 46.123069 94.755977
RightForeArm 42.454684 0.000000 149.054028
RightHand 23.782738 0.000000 -9.259360
RightHandThumb1 -24.326973 -0.000000 -32.862282
LeftShoulder -4.852409 51.218527 3.923105
LeftArm 125.121137 33.964027 37.450875
LeftForeArm 49.655543 -0.000000 134.301561
LeftHand -40.083536 0.000000 31.029593
LeftHandThumb1 -26.253704 0.000000 33.147579
Head 31.785202 20.667466 16.569612
1375
root 2.243212 37.083005 7.435088 3.853417 -4.754986 1.933644
RightUpLeg 6.459815 3.243926 -4.100159
RightLeg -6.366030 -0.000000 0.000000
RightFoot -10.941530 -10.448527 17.392882
RightToeBase 13.631744 -0.000000 -0.000000
LeftUpLeg 5.055235 7.921709 3.539592
LeftLeg -4.273753 -0.000000 0.000000
LeftFoot -5.739197 5.586523 -19.839210
LeftToeBase 8.171134 -0.000000 -0.000000
Spine -8.648936 -10.145577 -4.629082
RightShoulder -19.574431 15.997433 -44.485804
RightArm 148.264365 46.076425 94.761168
RightForeArm 41.955590 -0.000000 149.089518
RightHand 23.795572 0.000000 -9.558359
RightHandThumb1 -24.326973 -0.000000 -32.862282
LeftShoulder -4.826827 51.251107 3.929925
LeftArm 125.092477 34.030515 37.416301
LeftForeArm 49.474099 -0.000000 134.358457
LeftHand -39.720892 -0.000000 30.431861
LeftHandThumb1 -26.253704 0.000000 33.147579
Head 31.731934 20.603086 16.493967
